<svg width="14" height="12" viewBox="0 0 14 12" fill="none" xmlns="http://www.w3.org/2000/svg">
<path d="M1 3.28571C1 2.48564 1 2.0856 1.14533 1.78001C1.27315 1.51121 1.47713 1.29266 1.72801 1.15571C2.01323 1 2.3866 1 3.13333 1H5.44968C5.7758 1 5.93887 1 6.09233 1.03947C6.22833 1.07446 6.3584 1.13219 6.47773 1.21051C6.61227 1.29886 6.7276 1.42239 6.9582 1.66947L7.0418 1.7591C7.2724 2.00618 7.38773 2.12971 7.52227 2.21806C7.6416 2.29639 7.77167 2.35411 7.90767 2.3891C8.06113 2.42857 8.2242 2.42857 8.55033 2.42857H10.8667C11.6134 2.42857 11.9868 2.42857 12.272 2.58428C12.5229 2.72124 12.7269 2.93978 12.8547 3.20859C13 3.51417 13 3.91421 13 4.71429V8.71429C13 9.51436 13 9.91443 12.8547 10.22C12.7269 10.4888 12.5229 10.7074 12.272 10.8443C11.9868 11 11.6134 11 10.8667 11H3.13333C2.38659 11 2.01323 11 1.72801 10.8443C1.47713 10.7074 1.27315 10.4888 1.14533 10.22C1 9.91443 1 9.51436 1 8.71429V3.28571Z" stroke="white" stroke-width="1.5" stroke-linecap="round" stroke-linejoin="round"/>
</svg>
