<svg width="10" height="10" viewBox="0 0 10 10" fill="none" xmlns="http://www.w3.org/2000/svg">
<path d="M4.11111 5.44444L5.88889 7.22222M5.88889 5.44444L4.11111 7.22222M1 3.66667H9M2.77778 1V1.88889M7.22222 1V1.88889M2.42222 9H7.57778C8.0756 9 8.32453 9 8.51467 8.90311C8.68191 8.81791 8.81791 8.68191 8.90311 8.51467C9 8.32453 9 8.0756 9 7.57778V3.31111C9 2.81328 9 2.56437 8.90311 2.37423C8.81791 2.20697 8.68191 2.07099 8.51467 1.98577C8.32453 1.88889 8.0756 1.88889 7.57778 1.88889H2.42222C1.9244 1.88889 1.67548 1.88889 1.48534 1.98577C1.31808 2.07099 1.1821 2.20697 1.09688 2.37423C1 2.56437 1 2.81328 1 3.31111V7.57778C1 8.0756 1 8.32453 1.09688 8.51467C1.1821 8.68191 1.31808 8.81791 1.48534 8.90311C1.67548 9 1.9244 9 2.42222 9Z" stroke="black" stroke-width="0.8" stroke-linecap="round" stroke-linejoin="round"/>
</svg>
